<?xml version="1.0" standalone="no"?>
<!DOCTYPE svg PUBLIC "-//W3C//DTD SVG 20010904//EN"
 "http://www.w3.org/TR/2001/REC-SVG-20010904/DTD/svg10.dtd">
<svg version="1.0" xmlns="http://www.w3.org/2000/svg"
 width="270.000000pt" height="155.000000pt" viewBox="0 0 270.000000 155.000000"
 preserveAspectRatio="xMidYMid meet">

<g transform="translate(0.000000,155.000000) scale(0.100000,-0.100000)"
fill="#000000" stroke="none">
<path d="M76 1326 c3 -8 0 -17 -7 -22 -8 -4 -10 -3 -5 4 4 7 3 12 -1 12 -32 0
-33 -25 -33 -572 0 -535 0 -548 20 -568 20 -20 33 -20 1305 -20 l1286 0 24 25
25 24 0 543 c0 299 -4 548 -8 554 -22 34 -40 34 -1331 34 -1093 0 -1280 -2
-1275 -14z m394 -391 c46 -58 86 -105 90 -105 3 0 43 47 89 105 l82 105 111 0
c105 0 110 -1 96 -17 -8 -10 -76 -93 -151 -185 l-137 -167 0 -101 0 -100 -90
0 -90 0 0 101 0 100 -136 167 c-76 92 -144 175 -152 185 -14 16 -9 17 95 17
l111 0 82 -105z m1033 82 c44 -29 67 -75 67 -134 l0 -53 -75 0 c-60 0 -75 3
-75 15 0 8 -9 24 -20 35 -18 18 -33 20 -134 20 -112 0 -163 -9 -178 -33 -4 -7
-8 -55 -8 -108 0 -141 2 -143 165 -147 139 -4 169 5 181 53 6 24 10 25 80 25
l74 0 0 -52 c0 -73 -25 -118 -80 -145 -41 -22 -57 -23 -240 -23 -185 0 -198 1
-247 24 -78 37 -87 60 -91 240 -4 167 5 220 47 260 40 38 88 45 306 43 175 -2
205 -4 228 -20z m431 -159 c39 -98 73 -178 76 -178 3 0 14 24 24 53 10 28 41
109 69 180 l50 127 113 0 114 0 0 -285 0 -285 -80 0 -79 0 -3 155 -3 155 -70
-152 -71 -153 -61 -3 -62 -3 -80 158 -80 158 0 -157 -1 -158 -80 0 -80 0 0
285 0 286 117 -3 116 -3 71 -177z m616 -268 c33 -33 30 -75 -6 -107 -31 -28
-54 -29 -88 -2 -52 41 -23 129 44 129 17 0 39 -9 50 -20z"/>
<path d="M2457 572 c-21 -23 -21 -41 -1 -70 30 -43 104 -18 104 36 0 48 -70
71 -103 34z m59 0 c11 -7 15 -72 4 -72 -3 0 -11 5 -18 12 -9 9 -12 9 -12 0 0
-7 -4 -12 -10 -12 -5 0 -10 18 -10 40 0 31 4 40 18 40 9 0 22 -4 28 -8z"/>
<path d="M2490 550 c0 -5 5 -10 10 -10 6 0 10 5 10 10 0 6 -4 10 -10 10 -5 0
-10 -4 -10 -10z"/>
</g>
</svg>
